<?xml version="1.0" encoding="utf-8"?>
<!-- Generator: Adobe Illustrator 18.0.0, SVG Export Plug-In . SVG Version: 6.00 Build 0)  -->
<!DOCTYPE svg PUBLIC "-//W3C//DTD SVG 1.1//EN" "http://www.w3.org/Graphics/SVG/1.1/DTD/svg11.dtd">
<svg version="1.1" id="Layer_1" xmlns="http://www.w3.org/2000/svg" xmlns:xlink="http://www.w3.org/1999/xlink" x="0px" y="0px"
	 viewBox="0 0 46 50" enable-background="new 0 0 46 50" xml:space="preserve">
<g>
	<g>
		<path fill="#ffffff" d="M25.9,36.5C37,36.5,46,29.6,46,21.1H5.7C5.7,29.6,14.7,36.5,25.9,36.5z M15.4,36.6c-3.7,0-6.6,3-6.6,6.7
			c0,3.7,3,6.7,6.6,6.7c3.7,0,6.6-3,6.6-6.7C22,39.6,19,36.6,15.4,36.6z M15.4,47.4c-2.3,0-4.1-1.9-4.1-4.1c0-2.3,1.8-4.1,4.1-4.1
			c2.3,0,4.1,1.9,4.1,4.1C19.5,45.6,17.6,47.4,15.4,47.4z M36.1,36.6c-3.7,0-6.6,3-6.6,6.7c0,3.7,3,6.7,6.6,6.7c3.6,0,6.6-3,6.6-6.7
			C42.7,39.6,39.7,36.6,36.1,36.6z M36.1,47.4c-2.3,0-4.1-1.9-4.1-4.1c0-2.3,1.8-4.1,4.1-4.1c2.3,0,4.1,1.9,4.1,4.1
			C40.1,45.6,38.3,47.4,36.1,47.4z M8.3,19.4L8.3,19.4C8.2,15.1,6,10,1.2,9.8c-1.6-0.1-1.6,2.5,0,2.6c3.3,0.1,4.5,4.3,4.5,7l0,0H8.3
			z M33.1,2c0-0.1,0.1-0.2,0.1-0.4c0.4-1.6-2-2.3-2.4-0.7c0,0.1-0.1,0.2-0.1,0.3c-1.6,5.9-3.3,11.9-4.9,17.8c0,0.1,0,0.2,0,0.3H46
			C46,11.5,40.6,4.7,33.1,2z"/>
	</g>
</g>
</svg>
