<?xml version="1.0" encoding="utf-8"?>
<!-- Generator: Adobe Illustrator 18.0.0, SVG Export Plug-In . SVG Version: 6.00 Build 0)  -->
<!DOCTYPE svg PUBLIC "-//W3C//DTD SVG 1.1//EN" "http://www.w3.org/Graphics/SVG/1.1/DTD/svg11.dtd">
<svg version="1.1" id="Layer_1" xmlns="http://www.w3.org/2000/svg" xmlns:xlink="http://www.w3.org/1999/xlink" x="0px" y="0px"
	 viewBox="0 0 56 50.1" enable-background="new 0 0 56 50.1" xml:space="preserve">
<path fill="#ffffff"  d="M46.4,19.3l-8.1-8.6L28.4,0.2c-0.2-0.2-0.6-0.2-0.8,0L0.2,29.2c-0.4,0.4-0.1,1,0.4,1h4.9c0.3,0,0.6,0.3,0.6,0.6v18.5
	c0,0.3,0.3,0.6,0.6,0.6H24H32h17.3c0.3,0,0.6-0.3,0.6-0.6V30.9c0-0.3,0.3-0.6,0.6-0.6h4.9c0.5,0,0.8-0.7,0.4-1L46.4,19.3z
	 M35.1,40.5c0,0.8-0.6,1.4-1.3,1.4H23.2c-0.6,0-1.3-0.5-1.5-1.2l-0.3-1.2c-0.2-0.6,0.1-1.3,0.5-1.7c0.9-0.8,1.5-1.9,1.6-3.1
	c0.1-0.4-0.2-0.7-0.6-0.7h-0.7c-0.7,0-1.3-0.6-1.3-1.4v-0.5c0-0.8,0.6-1.4,1.3-1.4l0,0c0.4,0,0.6-0.4,0.6-0.7
	c-0.1-0.5-0.1-0.9-0.1-1.4c0-2.1,0.9-3.9,2.2-5c1.3-1.2,3-1.7,4.7-1.7c1.5,0,3.1,0.5,4.4,1.7c0.6,0.5,0.6,1.6-0.1,2.1L33,26.2
	c-0.5,0.4-1.1,0.4-1.6,0c-0.6-0.4-1.2-0.6-1.9-0.6c-0.8,0-1.7,0.3-2.3,0.8c-0.6,0.5-0.9,1.2-0.9,2.1c0,0.4,0.1,0.9,0.3,1.5
	c0,0.1,0,0.1,0.1,0.2c0.1,0.2,0.3,0.4,0.6,0.4h0.9c0.7,0,1.3,0.6,1.3,1.4v0.5c0,0.8-0.6,1.4-1.3,1.4h-0.3c-0.3,0-0.6,0.2-0.6,0.6
	c-0.1,1-0.3,1.9-0.6,2.7c-0.2,0.4,0.1,0.8,0.5,0.8h6.7c0.7,0,1.3,0.6,1.3,1.4V40.5z"/>
</svg>
