<?xml version="1.0" encoding="utf-8"?>
<!-- Generator: Adobe Illustrator 18.0.0, SVG Export Plug-In . SVG Version: 6.00 Build 0)  -->
<!DOCTYPE svg PUBLIC "-//W3C//DTD SVG 1.1//EN" "http://www.w3.org/Graphics/SVG/1.1/DTD/svg11.dtd">
<svg version="1.1" id="Layer_1" xmlns="http://www.w3.org/2000/svg" xmlns:xlink="http://www.w3.org/1999/xlink" x="0px" y="0px"
	 viewBox="0 0 31 26" enable-background="new 0 0 31 26" xml:space="preserve">
<path fill="#383567" d="M0,13.4V7.1c0-0.5,0.2-1,0.6-1.4C1,5.4,1.4,5.2,1.9,5.2h7.1V1.3c0-0.3,0.1-0.7,0.4-0.9C9.7,0.1,10,0,10.3,0h10.3
	c0.4,0,0.7,0.1,0.9,0.4C21.9,0.6,22,0.9,22,1.3v3.9h7.1c0.5,0,1,0.2,1.4,0.6C30.8,6.2,31,6.6,31,7.1v6.3H0z M31,15.4v8.7
	c0,0.5-0.2,1-0.6,1.4c-0.4,0.4-0.8,0.6-1.4,0.6H1.9c-0.5,0-1-0.2-1.4-0.6C0.2,25,0,24.6,0,24.1v-8.7h12c0,0.1,0,0.2,0,0.3v2.6
	c0,0.6,0.2,1.2,0.7,1.6c0.4,0.5,1,0.7,1.6,0.7h2.6c0.6,0,1.1-0.2,1.6-0.7c0.4-0.4,0.7-1,0.7-1.6v-2.6c0-0.1,0-0.2-0.1-0.3H31z
	 M11.6,5.2h7.8V2.6h-7.8V5.2z M16.8,15.4c0.2,0,0.3,0.1,0.3,0.3v2.6c0,0.2-0.1,0.3-0.3,0.3h-2.6c-0.2,0-0.3-0.1-0.4-0.3v-2.6
	c0-0.2,0.1-0.3,0.4-0.3H16.8z"/>
</svg>
