<?xml version="1.0" encoding="utf-8"?>
<!-- Generator: Adobe Illustrator 18.0.0, SVG Export Plug-In . SVG Version: 6.00 Build 0)  -->
<!DOCTYPE svg PUBLIC "-//W3C//DTD SVG 1.1//EN" "http://www.w3.org/Graphics/SVG/1.1/DTD/svg11.dtd">
<svg version="1.1" id="Layer_1" xmlns="http://www.w3.org/2000/svg" xmlns:xlink="http://www.w3.org/1999/xlink" x="0px" y="0px"
	 viewBox="0 0 31 27" enable-background="new 0 0 31 27" xml:space="preserve">
<g>
	<g>
		<path fill="#383567"  d="M20.2,20.1l-2.9-1.7C17.2,18.4,17,18.1,17,18v-3.3c0-0.4-0.3-0.7-0.7-0.7h-1.7c-0.4,0-0.7,0.3-0.7,0.7V18
			c0,0.2-0.1,0.4-0.3,0.5l-2.9,1.7c-0.3,0.2-0.4,0.6-0.2,0.9l0.8,1.5c0.2,0.3,0.6,0.4,0.9,0.2l2.9-1.7c0.2-0.1,0.4-0.1,0.6,0
			l2.9,1.7c0.3,0.2,0.7,0.1,0.9-0.2l0.8-1.5C20.6,20.7,20.5,20.3,20.2,20.1z M11.3,12.2h8.4c0.4,0,0.7-0.3,0.7-0.7V9.8
			c0-1.4-1.2-2.6-2.6-2.6h-4.6c-1.4,0-2.6,1.2-2.6,2.6v1.7C10.6,11.9,10.9,12.2,11.3,12.2z M15.5,6c1.7,0,3-1.3,3-3c0-1.7-1.3-3-3-3
			s-3,1.3-3,3C12.5,4.7,13.8,6,15.5,6z M28.4,22.1h-4.6c-1.4,0-2.6,1.2-2.6,2.6v1.7c0,0.4,0.3,0.7,0.7,0.7h8.4
			c0.4,0,0.7-0.3,0.7-0.7v-1.7C31,23.2,29.8,22.1,28.4,22.1z M26.1,20.8c1.7,0,3-1.3,3-3c0-1.7-1.3-3-3-3c-1.7,0-3,1.3-3,3
			C23.1,19.5,24.5,20.8,26.1,20.8z M7.2,22.1H2.6c-1.4,0-2.6,1.2-2.6,2.6v1.7C0,26.7,0.3,27,0.7,27h8.4c0.4,0,0.7-0.3,0.7-0.7v-1.7
			C9.8,23.2,8.6,22.1,7.2,22.1z M4.9,20.8c1.7,0,3-1.3,3-3c0-1.7-1.3-3-3-3c-1.7,0-3,1.3-3,3C1.9,19.5,3.2,20.8,4.9,20.8z"/>
	</g>
</g>
</svg>
