<?xml version="1.0" encoding="utf-8"?>
<!-- Generator: Adobe Illustrator 18.0.0, SVG Export Plug-In . SVG Version: 6.00 Build 0)  -->
<!DOCTYPE svg PUBLIC "-//W3C//DTD SVG 1.1//EN" "http://www.w3.org/Graphics/SVG/1.1/DTD/svg11.dtd">
<svg version="1.1" id="Layer_1" xmlns="http://www.w3.org/2000/svg" xmlns:xlink="http://www.w3.org/1999/xlink" x="0px" y="0px"
	 viewBox="0 0 38 50" enable-background="new 0 0 38 50" xml:space="preserve">
<g>
	<g>
		<path fill="#ffffff"  d="M19,5.4c-7.4,0-13.3,5.8-13.3,12.9c0,7.1,6,12.9,13.3,12.9c7.4,0,13.4-5.8,13.4-12.9C32.3,11.2,26.3,5.4,19,5.4z
			 M37.7,15.7c0.6-1.4,0.1-3.3-1.2-4.2c-1.3-0.9-2.5-2.9-2.7-4.4c-0.2-1.5-1.6-2.9-3.2-3.1C29.1,3.8,27,2.6,26,1.4
			c-1-1.2-2.9-1.7-4.4-1.1c-1.5,0.6-3.9,0.6-5.3,0c-1.5-0.6-3.4-0.1-4.4,1.1c-1,1.2-3,2.4-4.6,2.6c-1.6,0.2-3,1.6-3.2,3.1
			c-0.2,1.5-1.4,3.5-2.7,4.4c-1.3,0.9-1.8,2.8-1.2,4.2c0.6,1.4,0.6,3.7,0,5.1c-0.6,1.4-0.1,3.3,1.2,4.2C2.7,26,3.9,28,4.1,29.6
			c0.2,1.5,1.6,2.9,3.2,3.1c0.5,0.1,1.1,0.2,1.6,0.5V50l10-4.5L29,50V33.1c0.6-0.2,1.1-0.4,1.6-0.5c1.6-0.2,3-1.6,3.2-3.1
			c0.2-1.5,1.4-3.5,2.7-4.4s1.8-2.8,1.2-4.2C37.1,19.5,37.1,17.2,37.7,15.7z M19,33.3c-8.5,0-15.5-6.7-15.5-14.9
			c0-8.2,6.9-14.9,15.5-14.9c8.5,0,15.5,6.7,15.5,14.9C34.5,26.6,27.5,33.3,19,33.3z"/>
	</g>
</g>
</svg>
