<?xml version="1.0" encoding="utf-8"?>
<!-- Generator: Adobe Illustrator 18.0.0, SVG Export Plug-In . SVG Version: 6.00 Build 0)  -->
<!DOCTYPE svg PUBLIC "-//W3C//DTD SVG 1.1//EN" "http://www.w3.org/Graphics/SVG/1.1/DTD/svg11.dtd">
<svg version="1.1" id="magnifying-glass_lg_1_" xmlns="http://www.w3.org/2000/svg" xmlns:xlink="http://www.w3.org/1999/xlink"
	 x="0px" y="0px" viewBox="0 0 128 128" enable-background="new 0 0 128 128" xml:space="preserve">
<line id="name:handle_name:handle-connector" fill="none" stroke="#383567" stroke-width="8" stroke-miterlimit="10" x1="85" y1="85" x2="77.0877" y2="77.0877"/>
<g>
	<defs>
		<polygon id="SVGID_1_" points="95.707,83.707 89,90.4141 87.5859,89 94.293,82.293 90,78 78,90 116,128 128,116 		"/>
	</defs>
	<clipPath id="SVGID_2_">
		<use xlink:href="#SVGID_1_"  overflow="visible"/>
	</clipPath>
	<g id="name:handle_rc:sm_2_" clip-path="url(#SVGID_2_)">
		<path d="M126.9393,117.0607l-9.8787,9.8787c-0.5858,0.5858-1.5355,0.5858-2.1213,0L79.0607,91.0607
			c-0.5858-0.5858-0.5858-1.5355,0-2.1213l9.8787-9.8787c0.5858-0.5858,1.5355-0.5858,2.1213,0l35.8787,35.8787
			C127.5251,115.5251,127.5251,116.4749,126.9393,117.0607z"/>
	</g>
</g>
<circle id="name:rim_3_" fill="none" stroke="#383567" stroke-width="8" stroke-miterlimit="10" cx="46" cy="46" r="42"/>
<path id="name:reflection_style:accent" fill="#FFFFFF" stroke="#383567" stroke-width="2" stroke-linecap="round" stroke-miterlimit="10" d="
	M13,46c0-18.2254,14.7746-33,33-33"/>
</svg>
