<?xml version="1.0" encoding="utf-8"?>
<!-- Generator: Adobe Illustrator 18.0.0, SVG Export Plug-In . SVG Version: 6.00 Build 0)  -->
<!DOCTYPE svg PUBLIC "-//W3C//DTD SVG 1.1//EN" "http://www.w3.org/Graphics/SVG/1.1/DTD/svg11.dtd">
<svg version="1.1" id="Layer_1" xmlns="http://www.w3.org/2000/svg" xmlns:xlink="http://www.w3.org/1999/xlink" x="0px" y="0px"
	 viewBox="0 0 53 50" enable-background="new 0 0 53 50" xml:space="preserve">
<g>
	<g>
		<path  fill="#ffffff" d="M41.8,17.2C41.2,16,39.6,15,38.3,15H15.1c-1.4,0-3,1-3.6,2.2l-4.9,10c-0.6,1.2-1.1,3.4-1.1,4.7v9.3c0,1.4,1.1,2.5,2.5,2.5
			h0.4v4.4c0,1,0.8,1.9,1.9,1.9H14c1,0,1.9-0.8,1.9-1.9v-4.4h21.7v4.4c0,1,0.8,1.9,1.9,1.9h3.7c1,0,1.9-0.8,1.9-1.9v-4.4h0.3
			c1.4,0,2.5-1.1,2.5-2.5v-9.3c0-1.4-0.5-3.5-1.1-4.7L41.8,17.2z M13.7,26.9l2.3-4.6c0.3-0.6,1.1-1.1,1.8-1.1h17.9
			c0.7,0,1.5,0.5,1.8,1.1l2.3,4.6c0.3,0.6,0,1.1-0.7,1.1H14.4C13.7,28,13.4,27.5,13.7,26.9z M13.7,39.8c-1.9,0-3.4-1.5-3.4-3.4
			c0-1.9,1.5-3.4,3.4-3.4s3.4,1.5,3.4,3.4C17.1,38.3,15.6,39.8,13.7,39.8z M40.2,39.8c-1.9,0-3.4-1.5-3.4-3.4c0-1.9,1.5-3.4,3.4-3.4
			c1.9,0,3.4,1.5,3.4,3.4C43.6,38.3,42.1,39.8,40.2,39.8z M51,8.4L29.4,0.4c-1.6-0.6-4.2-0.6-5.8,0L2,8.4c-1.6,0.6-2.4,2.4-1.8,4
			l0.4,1.2c0.6,1.6,2.4,2.4,4,1.9l20.7-7.6c0.6-0.2,1.7-0.2,2.3,0l20.7,7.6c1.6,0.6,3.3,0.2,3.7-1c0.4-1.1,0.7-2.1,0.7-2.1
			C53.4,10.8,52.6,9,51,8.4z"/>
	</g>
</g>
</svg>
