<?xml version="1.0" encoding="utf-8"?>
<!-- Generator: Adobe Illustrator 18.0.0, SVG Export Plug-In . SVG Version: 6.00 Build 0)  -->
<!DOCTYPE svg PUBLIC "-//W3C//DTD SVG 1.1//EN" "http://www.w3.org/Graphics/SVG/1.1/DTD/svg11.dtd">
<svg version="1.1" id="Layer_1" xmlns="http://www.w3.org/2000/svg" xmlns:xlink="http://www.w3.org/1999/xlink" x="0px" y="0px"
	 viewBox="0 0 32 50.9" enable-background="new 0 0 32 50.9" xml:space="preserve">
<path  fill="#ffffff" d="M1.8,2.4c-0.3-0.9,0.1-1.9,1-2.3c0.9-0.3,1.9,0.1,2.2,1l1.2,3.2c0.3,0.9-0.1,1.9-1,2.3C4.9,6.8,4.7,6.8,4.5,6.8
	c-0.7,0-1.4-0.4-1.6-1.2L1.8,2.4z M15.1,29.1c-0.3-0.9-1.3-1.4-2.2-1c-0.9,0.3-1.4,1.4-1,2.3l1.3,3.7c0.3,0.9,1.3,1.4,2.2,1
	c0.9-0.3,1.4-1.4,1-2.3L15.1,29.1z M31.9,40.6l-1-1.3c0.4-0.7,0.4-1.7-0.2-2.3L16.4,19.7c0.5-1.1,0.7-2.3,0.7-3.5
	c0-1-0.2-2.1-0.5-3.1c-1.3-3.6-4.6-5.8-8.1-5.8c-1,0-2,0.2-3,0.6C2.1,9.3,0,12.6,0,16.2c0,1,0.2,2.1,0.5,3.1
	c0.8,2.2,2.4,3.9,4.3,4.9L5,46.8c0,0.9,0.6,1.6,1.3,1.9l0.1,1.7c0,0.3,0.3,0.5,0.6,0.5c0.3,0,0.6-0.3,0.6-0.6l-0.1-1.6
	c0.8-0.2,1.5-1,1.5-2L8.8,19.1c0-1.1-0.9-2-2-2c-1.1,0-2,0.9-2,2l0,3c-1.2-0.8-2.1-1.9-2.6-3.4c-0.3-0.8-0.4-1.6-0.4-2.5
	c0-2.9,1.7-5.5,4.4-6.6C7,9.4,7.8,9.2,8.6,9.2c2.8,0,5.4,1.7,6.4,4.6c0.3,0.8,0.4,1.6,0.4,2.4c0,0.7-0.1,1.3-0.3,1.9l-1.9-2.3
	c-0.7-0.9-1.9-1-2.8-0.2c-0.8,0.7-0.9,2-0.2,2.9l17.4,21.1c0.4,0.5,0.9,0.7,1.5,0.7c0.3,0,0.6-0.1,0.8-0.2l1,1.3
	c0.1,0.1,0.3,0.2,0.4,0.2c0.1,0,0.2,0,0.3-0.1C32,41.2,32,40.9,31.9,40.6z"/>
</svg>
