<?xml version="1.0" encoding="utf-8"?>
<!-- Generator: Adobe Illustrator 18.0.0, SVG Export Plug-In . SVG Version: 6.00 Build 0)  -->
<!DOCTYPE svg PUBLIC "-//W3C//DTD SVG 1.1//EN" "http://www.w3.org/Graphics/SVG/1.1/DTD/svg11.dtd">
<svg version="1.1" id="Layer_1" xmlns="http://www.w3.org/2000/svg" xmlns:xlink="http://www.w3.org/1999/xlink" x="0px" y="0px"
	 viewBox="0 0 28 36" enable-background="new 0 0 28 36" xml:space="preserve">
<g>
	<g>
		<path d="M14,11.8c3.3,0,6.1-2.6,6.1-5.9C20.1,2.6,17.4,0,14,0C10.7,0,8,2.6,8,5.9C8,9.2,10.7,11.8,14,11.8z M27,21.3
			c-0.7-1.4-1.6-3-2.4-4.2c-1.2-2-2.6-3.6-5.5-3.6H9.8c-4.4,0-6,4.5-7.4,7.1c-1.1,2-2.2,5-2.3,6.7c-0.2,3.4,2.2,5.7,2.6,5.9
			c2,1.4,4.3,2.5,8,2.8c2.8,0.2,5.3-1.1,5.6-2.6c0.3-1.8-0.9-3-3.3-2.9c-3.7,0.2-6.2-0.9-6.9-1.3c-1.8-0.9,0.4-0.9,0.8-0.9
			C8,28.2,9.2,28,9.8,27.5c0.6-0.5,0.1-0.3-0.7-2.7c-0.6-1.8,0.3-2.5,0.7-2.7c1.1-0.4,1.8,0.1,2.5,1.3c0.5,0.8,1.1,1.7,1.4,2.1
			c0.5,0.5,0.8,1.1,1.8,1.7c0.8,0.5,1.7,0.8,2.5,0.8c0.8,0,0.8,0,1.5-0.1c-0.8,0.7-3.4,2.5-1.6,4.5c1,1,3.2,0.6,4.2,0.2
			c1-0.4,2.8-1.6,4.3-3.4C29.3,25.6,27.5,22.4,27,21.3z M18.7,27.1c-2.3,0-4.2-1.8-4.2-4.1c0-2.3,1.9-4.1,4.2-4.1s4.2,1.8,4.2,4.1
			C22.9,25.3,21,27.1,18.7,27.1z"/>
	</g>
</g>
</svg>
