<?xml version="1.0" encoding="utf-8"?>
<!-- Generator: Adobe Illustrator 18.0.0, SVG Export Plug-In . SVG Version: 6.00 Build 0)  -->
<!DOCTYPE svg PUBLIC "-//W3C//DTD SVG 1.1//EN" "http://www.w3.org/Graphics/SVG/1.1/DTD/svg11.dtd">
<svg version="1.1" id="Layer_1" xmlns="http://www.w3.org/2000/svg" xmlns:xlink="http://www.w3.org/1999/xlink" x="0px" y="0px"
	 viewBox="0 0 31 30.2" enable-background="new 0 0 31 30.2" xml:space="preserve">
<path fill="#383567"  d="M18.8,3c0.1-0.1,0.1-0.3,0-0.4l-1.9-1.9C16.5,0.3,16.6,0,17.1,0l8,0C25.6,0,26,0.4,26,0.9v7.9c0,0.5-0.3,0.6-0.6,0.3
	l-1.9-1.9c-0.1-0.1-0.3-0.1-0.4,0l-7.6,7.6c-0.2,0.2-0.6,0.2-0.8,0l-3.4-3.4c-0.2-0.2-0.2-0.6,0-0.8L18.8,3z M30.5,9.2L16.9,22.7
	c-0.3,0.3-0.8,0.3-1.1,0l-6.1-6.1c-0.3-0.3-0.8-0.3-1.1,0l-8.3,8.3C0.1,25,0,25.3,0,25.6v4.7C0,30.6,0.4,31,0.8,31h29.4
	c0.4,0,0.8-0.4,0.8-0.8V9.5C31,9,30.8,8.9,30.5,9.2z"/>
</svg>
