<?xml version="1.0" encoding="utf-8"?>
<!-- Generator: Adobe Illustrator 18.0.0, SVG Export Plug-In . SVG Version: 6.00 Build 0)  -->
<!DOCTYPE svg PUBLIC "-//W3C//DTD SVG 1.1//EN" "http://www.w3.org/Graphics/SVG/1.1/DTD/svg11.dtd">
<svg version="1.1" id="Layer_1" xmlns="http://www.w3.org/2000/svg" xmlns:xlink="http://www.w3.org/1999/xlink" x="0px" y="0px"
	 viewBox="0 0 39 50" enable-background="new 0 0 39 50" xml:space="preserve">
<g>
	<g>
		<path  fill="#ffffff" d="M36.4,2.4l-8.7,0.1L25.1,0L13.9,0L12,2.5l-9.4,0C1.2,2.5,0,3.7,0,5.1c0,1.4,1.2,2.6,2.6,2.5l33.8-0.1
			C37.8,7.5,39,6.4,39,5C39,3.6,37.8,2.4,36.4,2.4z M5.4,50h28.5l4.3-39.2H0.8L5.4,50z M28.4,16.6c0.1-1,1-1.8,2-1.7
			c1,0.1,1.8,1,1.7,2l-2,27.2c-0.1,1-1,1.8-2,1.7c-1-0.1-1.8-1-1.7-2L28.4,16.6z M19.3,14.9c1,0,1.9,0.8,1.9,1.8L21.3,44
			c0,1-0.8,1.8-1.9,1.9c-1,0-1.9-0.8-1.9-1.8l-0.1-27.3C17.5,15.7,18.3,14.9,19.3,14.9z M8.1,15c1-0.1,1.9,0.6,2,1.7l2.6,27.2
			c0.1,1-0.7,1.9-1.7,2c-1,0.1-1.9-0.6-2-1.7L6.5,17C6.4,16,7.1,15.1,8.1,15z"/>
	</g>
</g>
</svg>
