<?xml version="1.0" encoding="utf-8"?>
<!-- Generator: Adobe Illustrator 18.0.0, SVG Export Plug-In . SVG Version: 6.00 Build 0)  -->
<!DOCTYPE svg PUBLIC "-//W3C//DTD SVG 1.1//EN" "http://www.w3.org/Graphics/SVG/1.1/DTD/svg11.dtd">
<svg version="1.1" id="Layer_1" xmlns="http://www.w3.org/2000/svg" xmlns:xlink="http://www.w3.org/1999/xlink" x="0px" y="0px"
	 viewBox="0 376 640 362" enable-background="new 0 376 640 362" xml:space="preserve">
<path d="M281.7,563.9c-1-11-5.9-21.7-14.8-32.1c-9.7-11.2-20.1-16.4-30.8-16c-3-0.3-7.2-0.6-12.3-0.8c-11.5,1.3-18.2,2.7-20.1,4.3
	c-16.3,12.6-24.6,27.5-24.6,44.4c0,13.4,5.6,27,16.9,40.4c7.3,8.9,15.2,14.5,23.1,16.6c2.2,0.6,5.7,1.1,10.7,1.3l10.2,0.6
	c9.4-0.3,18.2-4.3,26.3-11.8c8-7,12.8-15.3,14.7-24.6C282.3,580,282.5,572.6,281.7,563.9 M290.2,645.2c-5.1,3.4-20.6,4.6-27,1.6
	c-0.3-0.2-0.8-0.3-4.8-2.9c-6.5-4.3-12.1-7-16.6-8c-6.7,0-16.8-0.5-30.3-1.3c-2.2-1.1-5.7-2.6-10.5-4c-8.3-1.6-16.8-7-25.2-16.4
	c-8-8.8-12.9-17.6-14.8-26.2c-1.8-7.8-2.6-14.7-2.6-20.3c0-10.9,3.7-22.7,11-35.6c2.1-3.5,7.3-8.3,16-14.4
	c12.6-8.9,25.4-14.5,38.1-16.6c4.3-0.8,12.8,0,25.2,2.1c1.1,0.2,2.4,0.3,3.5,0.6c2.7,1,6.5,2.2,11.3,3.7c12.9,4.5,23,11.7,30,21.9
	c7,10.2,10.5,22,10.5,35.6c0,11.5-3.8,22.8-11.3,34.3c-1.8,2.7-6.9,10.5-15.5,23.1c-0.5,0.8-0.6,1.9-0.8,3c-0.2,2.1-2.6,4.6,5.3,9.1
	C295.7,642.9,290.5,644.6,290.2,645.2"/>
<path d="M429.8,627.2c-0.5,4.9-3.7,7.5-9.3,7.5c-2.1,0-7.7-1.1-16.9-3.2c-2.1-0.5-6.5,0.5-13.4,3c-6.9,2.6-11.8,3.8-15.2,4.1
	c-18.8,1.1-32.6-2.9-41.2-12c-8-8.5-12-22-12-40.9v-49.5c0-1.9-0.3-4.8-1-8.6c-0.6-3.8-1-6.7-1-8.6c0-8.3,4.3-12.3,13.1-12.3
	c1.1,0,1.9,0.2,2.6,0.3c4.5,1.8,6.7,4.3,6.7,7.7v62.6v9.6c-0.3,5.3-0.2,9.1,0.6,11.3c0.6,2.4,2.6,5.7,5.4,10.2
	c3.7,5.4,6.9,9.3,10.1,11.3c5.4,3.7,11.5,5.4,18.7,5.4c14.5,0,24.7-6.7,30.8-20c0.3-1,0.8-5.7,1-14.5c0-0.2,0-0.8,0.2-1.8v-2.4
	l-0.5-52.8c0-2.7-0.2-6.4-0.3-11.2c-0.2-4.1-0.3-6.9-0.3-7.8c0-4.6,4.5-7,13.6-7c5.4,0,8,2.7,8,8c0,1.1-0.3,2.2-0.8,2.9v70.9
	c0,4.6,0.3,11.8,0.8,21.7C430.1,618.6,430.1,623.9,429.8,627.2"/>
<path d="M474.2,631c-0.8,4.9-4.1,7.5-9.9,7.5c-5.7,0-9.9-1.4-12.3-4.5c-0.2-2.9-0.2-9.1,0-18.8c1.6-40.4,1.1-72.3-1.4-95.4
	c-0.5-4.3,0.5-8,3.2-11c2.7-3,6.2-4.6,10.7-4.6c6.9,0,10.4,4.3,10.4,12.8c0,1.9-0.2,4.6-0.6,8.3c-0.5,3.7-0.6,6.5-0.6,8.3v57.1
	c0,3.2,0.2,8,0.6,14.4c0.5,6.4,0.6,11.2,0.6,14.4C475,623.9,474.7,627.7,474.2,631"/>
<path d="M596.1,621.3c1.3,1.1,1.8,2.4,1.8,4c0,2.7-1.1,5.3-3.7,8c-2.4,2.7-4.9,4.1-7.7,4.3c-12.8,1.1-25.9,1.8-39.3,1.8
	c-3.4,0-8.5-0.3-15.2-0.8c-6.9-0.6-12-1-15.3-1c-1.9,0-4.8,0.2-8.5,0.5c-3.8,0.3-6.7,0.5-8.6,0.5c-4.1,0-7.8-1.1-11-3.5
	c-0.5-4.1-0.5-6.7,0-7.7c5.3-8.8,14-20,26.5-41.7c1.3-2.1,4.1-5.9,8.8-11.2c4.6-5.4,7.8-9.3,9.6-11.8c0.6-0.8,7.7-9.9,11.7-17.1
	c0.3-0.6,1-1.6,4-5.9c2.4-3.4,3.2-3.8,3-5.9c0-1-0.2-2.2-0.6-4c-3.7-6.2-13.2-9.4-28.7-9.4h-8.8c-6.2,0-11.2-0.3-14.8-0.8
	c-0.8-1.4-1.1-2.7-1.1-3.8c0-5.3,6.1-8.8,18.2-10.2c-1.1,0,4.6,0.2,17.1,0.2c14.2,0.2,30.5,0.6,49,1.1c2.1,0,3.7,1.3,5.3,4
	c1.3,2.4,1.3,4.6,0,6.9c-11.5,19.5-23.1,31-35,48.8c-5.3,7.3-14.2,16.8-26.8,36.4c-1.8,2.7-2.6,5.4-2.6,7.8c0,1,0.2,1.6,0.3,2.1
	c2.4,5.3,5.7,8.1,10.1,8.6c13.4,1.6,25.1,2.4,35,2.4c2.4,0,5.6-0.5,9.6-1.6c4.6-1.3,7.7-2.1,9.4-2.2
	C591.2,619.7,593.9,620.2,596.1,621.3"/>
<path d="M607.4,518.2c2.7,0,5.3,0,5.3-3c0-2.4-2.1-3-4.1-3h-4v6.1H607.4z M604.6,527.8h-2.2v-17.4h6.9c4,0,5.7,1.8,5.7,4.8
	c0,3-2.1,4.5-4.5,4.8l5.3,7.8h-2.6l-5.1-7.8h-3.7v7.8H604.6z M594.8,519c0,7.2,5.6,12.9,13.1,12.9S621,526.2,621,519
	c0-7.2-5.6-12.9-13.1-12.9S594.8,511.8,594.8,519 M623.2,519c0,8.5-6.7,15.2-15.5,15.2c-8.8,0-15.5-6.5-15.5-15.2
	c0-8.5,6.7-15.2,15.5-15.2C616.7,504,623.2,510.5,623.2,519"/>
<path d="M102,640.9h-7.3c-8,0-61-8-61-29.7c0-4.9,9.4-10.2,12.1-10.2c19.5,0,12.8,28.2,41.7,28.2c14.7,0,35.1-7.8,35.1-29.5
	c0-39.7-82-16.1-82-83c0-23.6,26.7-41.8,50.9-46.4c9.7-1.8,15.5-1.8,20.4-1.4c3.7,0.3,9.3,0.8,20,2.9c3.5,0.6,6.9,6.1,5.7,9.7
	c-2.4,7.8-8.9,3.7-18.7,0.3c-3.8-1.4-12.6-1.4-16.4-0.8c-7.2,1.1-31.9,2.4-31.9,35.6c0,38.1,76.8,23,76.8,79.8
	C147,620.7,120.3,640.9,102,640.9"/>
<path d="M436,411.6c2.1-1.9,4.6-3.8,7.7-5.7C441,407.3,438.4,409,436,411.6"/>
<path d="M500.2,452.3c0-0.5,0-1-0.2-1.4c-0.5,0.3-0.8,0.5-1.3,0.8c0,0.6,0,1,0,1.6L500.2,452.3"/>
<path d="M486.8,458.5c1.4-0.2,1.1-0.2,2.1-0.5c3.2-0.8,4.9-1.9,4.9-1.9c0.2-0.6,0.3-1.1,0.5-1.8c-0.3,0.2-0.6,0.5-1.3,0.6
	c-0.6,0.3-1.6,0.6-2.7,1c-2.1,0.5-2.7,0.5-3.8,0.5c-0.3,0.6-0.5,1.3-0.8,1.9C485.8,458.5,486.8,458.5,486.8,458.5"/>
<path d="M498.6,455.8c-0.8,4.8-3.2,8.1-3.2,8.1c-0.3,0.3-0.5,0.8-0.8,1.1h0.2c0.5,0,1.1,0,1.4-0.2l0,0c1.6-2.6,2.6-4.5,2.6-4.5
	c1-1.8,1.4-3.8,1.6-6.2C500,454.5,498.9,455.5,498.6,455.8"/>
<path d="M487.4,461.1c-1.1-0.2-1.8-0.8-2.2-1.4v-0.2l0,0c-0.3,0.5-0.5,1.1-1.1,1.8c0.5,0.3,1.1,0.8,2.7,1.6c1,0.5,2.2,1,3.5,1.4
	c0.3-0.5,0.5-0.8,0.5-0.8c0.6-1.3,1.1-2.2,1.6-3.4C492.2,460.1,489.8,461.4,487.4,461.1"/>
<path d="M493.3,466.5c-10.9,14.2-17.7,14.5-17.7,14.5c6.9-5.3,11.7-12.1,13.9-15.5l-0.2,0.2c-0.5-0.2-1.6-0.6-3-1.4
	c-1.1-0.6-2.1-1.4-3.2-2.2c-1.6,1.9-3.8,4.3-6.5,5.3c0,0-3.2,2.1-9.9,3.7c0,0-35,8-40.5-27.5c0,0-3.2-32.2,35.8-19.8
	c0,0,20.7,6.4,25.1,20.4c4.1-0.3,7.3-1.3,10.5-2.4c-4.9-13.7-15.8-27.9-15.8-27.9c-14.4-20-20.1-12.1-20.1-12.1
	c-6.5-1-12.8,1.3-18,4.3c9.6-4.5,20.1-2.6,20.1-2.6c15.5,5.4,27.3,26.3,27.3,26.3l-8.3-9.1c-4.9-5.9-10.5-10.5-10.5-10.5
	c-19.3-13.1-39.3,5.6-39.3,5.6c1-1.6,1.9-2.9,3-4.1c-3.2,2.9-5.1,5.1-5.1,5.1l-5.3,5.4c-15.6,15.2-4.6,44.8-4.6,44.8
	c8.5,23.5,34.8,20.4,36.2,20.4l12.9-3.8c12-1.1,20.4-10.7,24.9-17.1C494.4,466.7,494,466.7,493.3,466.5 M484.2,467.8
	c-2.7,5.7-8.3,6.5-8.3,6.5C480.2,472.7,484.2,467.8,484.2,467.8 M426,429.3c-7.8,25.9,7.8,42.8,7.8,42.8
	C406,459.2,426,429.3,426,429.3 M427.6,472.7c9.3,11.3,23.1,12.6,23.1,12.6C434.4,486,427.6,472.7,427.6,472.7 M428,457.2
	c7.8,14.5,26.8,17.6,26.8,17.6C432.4,478.3,428,457.2,428,457.2"/>
<path d="M483,416.5c0,0-31.8-53.5-57,3.8c-3.4,7.7-4.3,8.9-2.4,4.8C423.4,425,448.5,364.7,483,416.5"/>
<path d="M468.6,449.1c1.3,2.1,2.9,3.8,4.6,5.1C471.5,452.4,469.9,450.5,468.6,449.1"/>
<path d="M513.3,440.8c0,0-9.7,50.4-40.2,10.2c-4.1-5.4-5.1-6.2-2.7-3.2C470.2,447.7,501.3,490.8,513.3,440.8"/>
<path d="M519.2,423.1c0,0-4.3-16.4-16.8-20.1l-8.5-4.3c-0.8-0.2-12.8-3.8-22.3,2.9c-0.2,0.2-0.3,0.2-0.3,0.3c-0.2,0-0.2,0.2-0.3,0.2
	c0.6,0.5,0.6,0.5,0.6,0.6c0,0,1,0.6,1.1,0.8c0.2-0.2,0.3-0.3,0.5-0.3c2.7-2.2,8.3-5.6,16-3.8c0,0-8.1-0.8-15.6,4
	c-0.3,0.2-0.3,0.2-0.6,0.3l0.2,0.2c0.2,0.2,0.3,0.3,0.6,0.5c0.6,0.6,0.8,0.8,1.4,1.4c0.8,0.6,1.3,1.3,1.9,1.9c0,0,0,0,0.2,0
	c3.4-1.6,7.7-2.4,13.4-0.3c0,0-5.7-0.3-12,2.1c0.2,0.2,0.2,0.3,0.2,0.3c0.3,0.5,0.5,0.5,0.8,1c9.3-3.5,18.8,1,18.8,1
	c4.5,1.9,6.4,3.8,6.4,3.8c3.2,2.1,5.1,7.2,5.1,7.2c4.6,18.5-21.4,21.4-21.4,21.4c-29,3.5-22.3-18.7-22.3-18.7s0,0,0-0.2
	c-0.3-0.2-0.3-0.2-0.6-0.3c-0.6-0.3-1-0.3-1-0.5c-0.6,3.2-1,6.7-0.6,10.7c0,0-2.2-5.4-2.2-11.7c-0.6-0.2-0.3-0.2-1-0.3
	c-0.3-0.2-0.5-0.2-0.8-0.3c-1.1,5.6-1,12,2.7,17.1l3,4.5c0,0,1,1.9,2.9,4.3c-0.6-1-1.1-2.1-1.6-3.2c0,0,11.5,15.8,26.8,9.1
	c0,0,4.6-2.6,8.9-5.9l7-5.3c0,0-11.3,13.1-22.8,14.8c0,0-7.7,0-13.7-4.5c3.2,2.9,7.3,5.3,12,5.4c0,0,3,6.2,15.8-5.9
	C501,453.6,522.7,434.3,519.2,423.1 M505.1,410.3c0,0,3.8,1.4,4.9,5.7C510.1,416.1,508,412.1,505.1,410.3 M514.9,435.1
	c0,0,1.8-4.9-0.8-15.2c0,0-2.6-8-8.3-14.4c0,0,5.3,1.3,11.5,14.7C517.3,420.2,521.1,428.3,514.9,435.1"/>
<path d="M475.3,412.7c1.3-0.8,0.3-0.2,1.6-1c-0.3-0.3-0.8-0.6-1.1-1c-1.3,0.8-0.3,0.2-1.6,1C474.3,411.9,475,412.5,475.3,412.7"/>
<path d="M472.9,408.6c-0.6,0.6-1.3,1.3-1.3,1.3c0.5,0.5,0.8,0.6,1.1,0.8c0.3-0.2,0-0.2,1.3-1.1C473.9,409,473.5,408.9,472.9,408.6"
	/>
<path d="M466.4,407.1c0,0,1.9,0.8,3.2,1.4l2.1-1c0,0-3-2.1-3.8-2.4L466.4,407.1z"/>
<g>
	<path d="M59.7,677.5c-4.3,0-7.8,1.6-10.4,4.6c-2.6,3-3.8,7.3-3.8,12.9c0,5.7,1.3,10.1,3.7,12.9c2.4,2.9,5.9,4.5,10.5,4.5
		c1.9,0,3.8-0.2,5.7-0.6c1.9-0.3,3.8-1,5.7-1.4v6.5c-3.7,1.4-7.8,2.1-12.4,2.1c-6.9,0-12.1-2.1-15.8-6.2s-5.4-10.1-5.4-17.7
		c0-4.8,1-9.1,2.7-12.8c1.8-3.7,4.3-6.4,7.7-8.3c3.4-1.9,7.3-2.9,11.8-2.9c4.8,0,9.1,1,13.2,3l-2.7,6.4c-1.6-0.8-3.2-1.4-4.9-1.9
		C63.4,677.8,61.6,677.5,59.7,677.5z"/>
	<path d="M122.6,694.9c0,7.7-1.9,13.6-5.7,17.7c-3.8,4.1-9.1,6.4-16.1,6.4s-12.4-2.1-16.3-6.2c-3.8-4.1-5.6-10.1-5.6-17.9
		c0-7.7,1.9-13.6,5.7-17.7c3.8-4.1,9.3-6.2,16.3-6.2c6.9,0,12.3,2.1,16.1,6.2C120.8,681.3,122.6,687.2,122.6,694.9z M87,694.9
		c0,5.7,1.1,10.1,3.5,13.1s5.7,4.5,10.4,4.5c4.5,0,8-1.4,10.2-4.5c2.2-2.9,3.5-7.3,3.5-13.1c0-5.7-1.1-10.1-3.4-13.1
		s-5.7-4.5-10.2-4.5c-4.6,0-8,1.4-10.4,4.5C88.1,684.8,87,689.1,87,694.9z"/>
	<path d="M169.2,671.6v30.2c0,3.5-0.8,6.4-2.2,9.1c-1.4,2.6-3.7,4.6-6.4,5.9c-2.9,1.4-6.1,2.1-10.1,2.1c-5.7,0-10.2-1.6-13.6-4.6
		c-3.2-3-4.8-7.3-4.8-12.6v-30h7.7v29.5c0,3.8,1,6.7,2.7,8.5c1.8,1.8,4.5,2.7,8.3,2.7c7.2,0,10.9-3.8,10.9-11.3v-29.4H169.2z"/>
	<path d="M219.9,718.2h-9.4l-23-37.2h-0.3l0.2,2.1c0.3,4,0.5,7.5,0.5,10.9v24.3H181v-46.6h9.3l22.8,37h0.2c0-0.5-0.2-2.2-0.3-5.3
		c-0.2-3-0.2-5.4-0.2-7.2v-24.4h7v46.4H219.9z"/>
	<path d="M248.3,718.2h-7.7v-40.1H227v-6.5h35.1v6.5h-13.7L248.3,718.2L248.3,718.2z"/>
	<path d="M282.3,693l11-21.2h8.3l-15.5,28.6v18h-7.7v-17.9L263,671.7h8.3L282.3,693z"/>
	<path d="M344.6,677.5c-4.3,0-7.8,1.6-10.4,4.6c-2.6,3-3.8,7.3-3.8,12.9c0,5.7,1.3,10.1,3.7,12.9c2.4,2.9,5.9,4.5,10.5,4.5
		c1.9,0,3.8-0.2,5.7-0.6c1.9-0.3,3.8-1,5.7-1.4v6.5c-3.7,1.4-7.8,2.1-12.4,2.1c-6.9,0-12.1-2.1-15.8-6.2c-3.7-4.1-5.4-10.1-5.4-17.7
		c0-4.8,1-9.1,2.7-12.8c1.8-3.7,4.3-6.4,7.7-8.3c3.4-1.9,7.3-2.9,11.8-2.9c4.8,0,9.1,1,13.2,3l-2.7,6.4c-1.6-0.8-3.2-1.4-4.9-1.9
		C348.4,677.8,346.7,677.5,344.6,677.5z"/>
	<path d="M407.6,694.9c0,7.7-1.9,13.6-5.7,17.7c-3.8,4.1-9.1,6.4-16.1,6.4c-7,0-12.4-2.1-16.3-6.2c-3.8-4.1-5.6-10.1-5.6-17.9
		c0-7.7,1.9-13.6,5.7-17.7c3.8-4.1,9.3-6.2,16.3-6.2c6.9,0,12.3,2.1,16.1,6.2C405.7,681.3,407.6,687.2,407.6,694.9z M372,694.9
		c0,5.7,1.1,10.1,3.5,13.1c2.4,3,5.7,4.5,10.4,4.5c4.5,0,8-1.4,10.2-4.5c2.2-2.9,3.5-7.3,3.5-13.1c0-5.7-1.1-10.1-3.4-13.1
		c-2.2-3-5.7-4.5-10.2-4.5c-4.6,0-8,1.4-10.4,4.5S372,689.1,372,694.9z"/>
	<path d="M454.2,671.6v30.2c0,3.5-0.8,6.4-2.2,9.1c-1.4,2.6-3.7,4.6-6.4,5.9c-2.9,1.4-6.1,2.1-10.1,2.1c-5.7,0-10.2-1.6-13.6-4.6
		c-3.2-3-4.8-7.3-4.8-12.6v-30h7.7v29.5c0,3.8,1,6.7,2.7,8.5s4.5,2.7,8.3,2.7c7.2,0,10.9-3.8,10.9-11.3v-29.4H454.2z"/>
	<path d="M505,718.2h-9.4l-23-37.2h-0.2l0.2,2.1c0.3,4,0.5,7.5,0.5,10.9v24.3h-7v-46.6h9.3l22.8,37h0.2c0-0.5-0.2-2.2-0.3-5.3
		c-0.2-3-0.2-5.4-0.2-7.2v-24.4h7v46.4H505z"/>
	<path d="M537.1,677.5c-4.3,0-7.8,1.6-10.4,4.6s-3.8,7.3-3.8,12.9c0,5.7,1.3,10.1,3.7,12.9c2.4,2.9,5.9,4.5,10.5,4.5
		c1.9,0,3.8-0.2,5.7-0.6c1.9-0.3,3.8-1,5.7-1.4v6.5c-3.7,1.4-7.8,2.1-12.4,2.1c-6.9,0-12.1-2.1-15.8-6.2c-3.7-4.1-5.4-10.1-5.4-17.7
		c0-4.8,1-9.1,2.7-12.8c1.8-3.7,4.3-6.4,7.7-8.3c3.4-1.9,7.3-2.9,11.8-2.9c4.8,0,9.1,1,13.2,3l-2.7,6.4c-1.6-0.8-3.2-1.4-4.9-1.9
		C540.9,677.8,539,677.5,537.1,677.5z"/>
	<path d="M558.6,718.2v-46.6h7.7v46.6H558.6z"/>
	<path d="M578.6,718.2v-46.6h7.7v40.1H606v6.5H578.6z"/>
</g>
</svg>
