<svg xmlns="http://www.w3.org/2000/svg" viewBox="0 0 46 50" enable-background="new 0 0 46 50"><path fill="#fff" d="M25.9 36.5C37 36.5 46 29.6 46 21.1H5.7c0 8.5 9 15.4 20.2 15.4zm-10.5.1c-3.7 0-6.6 3-6.6 6.7s3 6.7 6.6 6.7c3.7 0 6.6-3 6.6-6.7s-3-6.7-6.6-6.7zm0 10.8c-2.3 0-4.1-1.9-4.1-4.1 0-2.3 1.8-4.1 4.1-4.1s4.1 1.9 4.1 4.1c0 2.3-1.9 4.1-4.1 4.1zm20.7-10.8c-3.7 0-6.6 3-6.6 6.7s3 6.7 6.6 6.7c3.6 0 6.6-3 6.6-6.7s-3-6.7-6.6-6.7zm0 10.8c-2.3 0-4.1-1.9-4.1-4.1 0-2.3 1.8-4.1 4.1-4.1s4.1 1.9 4.1 4.1c-.1 2.3-1.9 4.1-4.1 4.1zm-27.8-28C8.2 15.1 6 10 1.2 9.8c-1.6-.1-1.6 2.5 0 2.6 3.3.1 4.5 4.3 4.5 7h2.6zM33.1 2c0-.1.1-.2.1-.4.4-1.6-2-2.3-2.4-.7 0 .1-.1.2-.1.3-1.6 5.9-3.3 11.9-4.9 17.8v.3H46C46 11.5 40.6 4.7 33.1 2z"/></svg>