<svg xmlns="http://www.w3.org/2000/svg" viewBox="0 0 31 26" enable-background="new 0 0 31 26"><path fill="#383567" d="M0 13.4V7.1c0-.5.2-1 .6-1.4.4-.3.8-.5 1.3-.5H9V1.3c0-.3.1-.7.4-.9.3-.3.6-.4.9-.4h10.3c.4 0 .7.1.9.4.4.2.5.5.5.9v3.9h7.1c.5 0 1 .2 1.4.6.3.4.5.8.5 1.3v6.3H0zm31 2v8.7c0 .5-.2 1-.6 1.4-.4.4-.8.6-1.4.6H1.9c-.5 0-1-.2-1.4-.6-.3-.5-.5-.9-.5-1.4v-8.7h12v2.9c0 .6.2 1.2.7 1.6.4.5 1 .7 1.6.7h2.6c.6 0 1.1-.2 1.6-.7.4-.4.7-1 .7-1.6v-2.6c0-.1 0-.2-.1-.3H31zM11.6 5.2h7.8V2.6h-7.8v2.6zm5.2 10.2c.2 0 .3.1.3.3v2.6c0 .2-.1.3-.3.3h-2.6c-.2 0-.3-.1-.4-.3v-2.6c0-.2.1-.3.4-.3h2.6z"/></svg>