<svg xmlns="http://www.w3.org/2000/svg" viewBox="0 0 31 27" enable-background="new 0 0 31 27"><path fill="#383567" d="M20.2 20.1l-2.9-1.7c-.1 0-.3-.3-.3-.4v-3.3c0-.4-.3-.7-.7-.7h-1.7c-.4 0-.7.3-.7.7V18c0 .2-.1.4-.3.5l-2.9 1.7c-.3.2-.4.6-.2.9l.8 1.5c.2.3.6.4.9.2l2.9-1.7c.2-.1.4-.1.6 0l2.9 1.7c.3.2.7.1.9-.2l.8-1.5c.3-.4.2-.8-.1-1zm-8.9-7.9h8.4c.4 0 .7-.3.7-.7V9.8c0-1.4-1.2-2.6-2.6-2.6h-4.6c-1.4 0-2.6 1.2-2.6 2.6v1.7c0 .4.3.7.7.7zM15.5 6c1.7 0 3-1.3 3-3s-1.3-3-3-3-3 1.3-3 3 1.3 3 3 3zm12.9 16.1h-4.6c-1.4 0-2.6 1.2-2.6 2.6v1.7c0 .4.3.7.7.7h8.4c.4 0 .7-.3.7-.7v-1.7c0-1.5-1.2-2.6-2.6-2.6zm-2.3-1.3c1.7 0 3-1.3 3-3s-1.3-3-3-3-3 1.3-3 3 1.4 3 3 3zM7.2 22.1H2.6c-1.4 0-2.6 1.2-2.6 2.6v1.7c0 .3.3.6.7.6h8.4c.4 0 .7-.3.7-.7v-1.7c0-1.4-1.2-2.5-2.6-2.5zm-2.3-1.3c1.7 0 3-1.3 3-3s-1.3-3-3-3-3 1.3-3 3 1.3 3 3 3z"/></svg>