<svg xmlns="http://www.w3.org/2000/svg" viewBox="0 0 38 50" enable-background="new 0 0 38 50"><path d="M19 5.4c-7.4 0-13.3 5.8-13.3 12.9 0 7.1 6 12.9 13.3 12.9 7.4 0 13.4-5.8 13.4-12.9-.1-7.1-6.1-12.9-13.4-12.9zm18.7 10.3c.6-1.4.1-3.3-1.2-4.2-1.3-.9-2.5-2.9-2.7-4.4-.2-1.5-1.6-2.9-3.2-3.1-1.5-.2-3.6-1.4-4.6-2.6C25 .2 23.1-.3 21.6.3c-1.5.6-3.9.6-5.3 0-1.5-.6-3.4-.1-4.4 1.1-1 1.2-3 2.4-4.6 2.6-1.6.2-3 1.6-3.2 3.1-.2 1.5-1.4 3.5-2.7 4.4-1.3.9-1.8 2.8-1.2 4.2.6 1.4.6 3.7 0 5.1-.6 1.4-.1 3.3 1.2 4.2 1.3 1 2.5 3 2.7 4.6.2 1.5 1.6 2.9 3.2 3.1.5.1 1.1.2 1.6.5V50l10-4.5L29 50V33.1c.6-.2 1.1-.4 1.6-.5 1.6-.2 3-1.6 3.2-3.1.2-1.5 1.4-3.5 2.7-4.4s1.8-2.8 1.2-4.2c-.6-1.4-.6-3.7 0-5.2zM19 33.3c-8.5 0-15.5-6.7-15.5-14.9S10.4 3.5 19 3.5c8.5 0 15.5 6.7 15.5 14.9s-7 14.9-15.5 14.9z"/></svg>