<svg xmlns="http://www.w3.org/2000/svg" viewBox="0 0 53 50" enable-background="new 0 0 53 50"><path d="M41.8 17.2c-.6-1.2-2.2-2.2-3.5-2.2H15.1c-1.4 0-3 1-3.6 2.2l-4.9 10c-.6 1.2-1.1 3.4-1.1 4.7v9.3c0 1.4 1.1 2.5 2.5 2.5h.4v4.4c0 1 .8 1.9 1.9 1.9H14c1 0 1.9-.8 1.9-1.9v-4.4h21.7v4.4c0 1 .8 1.9 1.9 1.9h3.7c1 0 1.9-.8 1.9-1.9v-4.4h.3c1.4 0 2.5-1.1 2.5-2.5v-9.3c0-1.4-.5-3.5-1.1-4.7l-5-10zm-28.1 9.7l2.3-4.6c.3-.6 1.1-1.1 1.8-1.1h17.9c.7 0 1.5.5 1.8 1.1l2.3 4.6c.3.6 0 1.1-.7 1.1H14.4c-.7 0-1-.5-.7-1.1zm0 12.9c-1.9 0-3.4-1.5-3.4-3.4s1.5-3.4 3.4-3.4 3.4 1.5 3.4 3.4-1.5 3.4-3.4 3.4zm26.5 0c-1.9 0-3.4-1.5-3.4-3.4s1.5-3.4 3.4-3.4 3.4 1.5 3.4 3.4-1.5 3.4-3.4 3.4zM51 8.4L29.4.4c-1.6-.6-4.2-.6-5.8 0L2 8.4C.4 9-.4 10.8.2 12.4l.4 1.2c.6 1.6 2.4 2.4 4 1.9l20.7-7.6c.6-.2 1.7-.2 2.3 0l20.7 7.6c1.6.6 3.3.2 3.7-1 .4-1.1.7-2.1.7-2.1.7-1.6-.1-3.4-1.7-4z"/></svg>