<svg xmlns="http://www.w3.org/2000/svg" viewBox="0 0 32 50.9" enable-background="new 0 0 32 50.9"><path fill="#fff" d="M1.8 2.4c-.3-.9.1-1.9 1-2.3.9-.3 1.9.1 2.2 1l1.2 3.2c.3.9-.1 1.9-1 2.3-.3.2-.5.2-.7.2-.7 0-1.4-.4-1.6-1.2L1.8 2.4zm13.3 26.7c-.3-.9-1.3-1.4-2.2-1-.9.3-1.4 1.4-1 2.3l1.3 3.7c.3.9 1.3 1.4 2.2 1 .9-.3 1.4-1.4 1-2.3l-1.3-3.7zm16.8 11.5l-1-1.3c.4-.7.4-1.7-.2-2.3L16.4 19.7c.5-1.1.7-2.3.7-3.5 0-1-.2-2.1-.5-3.1-1.3-3.6-4.6-5.8-8.1-5.8-1 0-2 .2-3 .6C2.1 9.3 0 12.6 0 16.2c0 1 .2 2.1.5 3.1.8 2.2 2.4 3.9 4.3 4.9L5 46.8c0 .9.6 1.6 1.3 1.9l.1 1.7c0 .3.3.5.6.5s.6-.3.6-.6l-.1-1.6c.8-.2 1.5-1 1.5-2l-.2-27.6c0-1.1-.9-2-2-2s-2 .9-2 2v3c-1.2-.8-2.1-1.9-2.6-3.4-.3-.8-.4-1.6-.4-2.5 0-2.9 1.7-5.5 4.4-6.6.8-.2 1.6-.4 2.4-.4 2.8 0 5.4 1.7 6.4 4.6.3.8.4 1.6.4 2.4 0 .7-.1 1.3-.3 1.9l-1.9-2.3c-.7-.9-1.9-1-2.8-.2-.8.7-.9 2-.2 2.9l17.4 21.1c.4.5.9.7 1.5.7.3 0 .6-.1.8-.2l1 1.3c.1.1.3.2.4.2.1 0 .2 0 .3-.1.4-.3.4-.6.3-.9z"/></svg>