<svg xmlns="http://www.w3.org/2000/svg" viewBox="0 0 28 36" enable-background="new 0 0 28 36"><path fill="#383567" d="M14 11.8c3.3 0 6.1-2.6 6.1-5.9C20.1 2.6 17.4 0 14 0c-3.3 0-6 2.6-6 5.9 0 3.3 2.7 5.9 6 5.9zm13 9.5c-.7-1.4-1.6-3-2.4-4.2-1.2-2-2.6-3.6-5.5-3.6H9.8c-4.4 0-6 4.5-7.4 7.1-1.1 2-2.2 5-2.3 6.7-.2 3.4 2.2 5.7 2.6 5.9 2 1.4 4.3 2.5 8 2.8 2.8.2 5.3-1.1 5.6-2.6.3-1.8-.9-3-3.3-2.9-3.7.2-6.2-.9-6.9-1.3-1.8-.9.4-.9.8-.9 1.1-.1 2.3-.3 2.9-.8.6-.5.1-.3-.7-2.7-.6-1.8.3-2.5.7-2.7 1.1-.4 1.8.1 2.5 1.3.5.8 1.1 1.7 1.4 2.1.5.5.8 1.1 1.8 1.7.8.5 1.7.8 2.5.8s.8 0 1.5-.1c-.8.7-3.4 2.5-1.6 4.5 1 1 3.2.6 4.2.2 1-.4 2.8-1.6 4.3-3.4 2.9-3.6 1.1-6.8.6-7.9zm-8.3 5.8c-2.3 0-4.2-1.8-4.2-4.1s1.9-4.1 4.2-4.1 4.2 1.8 4.2 4.1-1.9 4.1-4.2 4.1z"/></svg>