<svg xmlns="http://www.w3.org/2000/svg" viewBox="0 0 39 50" enable-background="new 0 0 39 50"><path d="M36.4 2.4l-8.7.1L25.1 0H13.9L12 2.5H2.6C1.2 2.5 0 3.7 0 5.1c0 1.4 1.2 2.6 2.6 2.5l33.8-.1C37.8 7.5 39 6.4 39 5s-1.2-2.6-2.6-2.6zM5.4 50h28.5l4.3-39.2H.8L5.4 50zm23-33.4c.1-1 1-1.8 2-1.7 1 .1 1.8 1 1.7 2l-2 27.2c-.1 1-1 1.8-2 1.7-1-.1-1.8-1-1.7-2l2-27.2zm-9.1-1.7c1 0 1.9.8 1.9 1.8l.1 27.3c0 1-.8 1.8-1.9 1.9-1 0-1.9-.8-1.9-1.8l-.1-27.3c.1-1.1.9-1.9 1.9-1.9zM8.1 15c1-.1 1.9.6 2 1.7l2.6 27.2c.1 1-.7 1.9-1.7 2-1 .1-1.9-.6-2-1.7L6.5 17c-.1-1 .6-1.9 1.6-2z"/></svg>